<svg xmlns="http://www.w3.org/2000/svg" xmlns:xlink="http://www.w3.org/1999/xlink" width="54" height="54" viewBox="0 0 54 54"><defs><style>.a{fill:#fff;stroke:#707070;}.b{clip-path:url(#a);}.c{fill:#29272c;}</style><clipPath id="a"><rect class="a" width="54" height="54" transform="translate(26 27)"/></clipPath></defs><g class="b" transform="translate(-26 -27)"><path class="c" d="M50.686,34l1.989.994.805-1.609-1.609-.805-5.6-7.472L37.435,26.71a3.543,3.543,0,0,0-1.522-4.657l8.679-2.367,4.679-5.614-1.382-1.152L43.571,18.1l-6.443,1.757a5.767,5.767,0,0,0,.656-2.764,10.438,10.438,0,0,0-.2-1.922c1.562-.34,5.593-1.5,5.593-4.376a20.831,20.831,0,0,0-1.894-8.5l-1.61.8a19.311,19.311,0,0,1,1.7,7.694c0,1.346-2.666,2.3-4.27,2.638a11.12,11.12,0,0,0-.813-1.767A6.143,6.143,0,0,0,37.784,8.1c0-4.2-5.767-6.169-6.013-6.251a.9.9,0,0,0-1.041,1.34,12.611,12.611,0,0,1,1.523,4.723,8.779,8.779,0,0,0-6.929,0,12.837,12.837,0,0,1,1.521-4.723A.9.9,0,0,0,25.8,1.846c-.246.082-6.013,2.052-6.013,6.251a6.143,6.143,0,0,0,1.484,3.57,11.157,11.157,0,0,0-.813,1.767c-1.6-.339-4.27-1.292-4.27-2.638a19.318,19.318,0,0,1,1.7-7.7l-1.61-.8a20.843,20.843,0,0,0-1.894,8.5c0,2.878,4.031,4.036,5.593,4.376a10.438,10.438,0,0,0-.2,1.922,5.761,5.761,0,0,0,.656,2.763L14,18.1,9.687,12.918,8.305,14.07l4.679,5.614,8.679,2.367a3.545,3.545,0,0,0-1.522,4.659L11.308,25.1,5.7,32.576,4.1,33.381,4.9,34.99,6.889,34l5.192-6.922,8.087,1.47a2.926,2.926,0,0,0,.778,3.764c-.058.121-.118.242-.174.362l-9.817,4.462L7.373,48.772l-2.26.754.569,1.706,3.138-1.045,3.616-11.751,7.256-3.3a20.071,20.071,0,0,0-1.7,7.146c0,10.462,10.454,13.434,10.559,13.463l.2.054.2-.037c.106-.02,10.634-2.066,10.634-13.48a20.078,20.078,0,0,0-1.7-7.145l7.256,3.3,3.616,11.751,3.138,1.045.569-1.706-2.26-.754L46.622,37.133,36.8,32.671c-.057-.12-.116-.241-.174-.362a2.93,2.93,0,0,0,.777-3.766l8.087-1.47ZM34.811,28.788a1.174,1.174,0,0,1,1.173,1.173,1.161,1.161,0,0,1-.833,1.123,26.618,26.618,0,0,1-6.364,1.3,26.618,26.618,0,0,1-6.364-1.3,1.161,1.161,0,0,1-.833-1.123,1.174,1.174,0,0,1,1.173-1.173H34.811Zm2.972,13.494a14.5,14.5,0,0,1-.211,2.406,16.515,16.515,0,0,1-8.786,2.991,16.687,16.687,0,0,1-8.742-2.962,12.2,12.2,0,0,1-.254-2.436c0-.243.019-.5.04-.767a16.258,16.258,0,0,0,8.956,2.567,16.261,16.261,0,0,0,8.956-2.567C37.765,41.778,37.784,42.039,37.784,42.282Zm-9,0A14.145,14.145,0,0,1,20.16,39.53a23.574,23.574,0,0,1,.757-2.541,14.329,14.329,0,0,0,7.871,2.594,14.329,14.329,0,0,0,7.871-2.594,23.586,23.586,0,0,1,.757,2.542A14.153,14.153,0,0,1,28.788,42.282Zm0-4.5a12.759,12.759,0,0,1-7.209-2.52c.3-.722.651-1.48,1.026-2.254a26.564,26.564,0,0,0,6.183,1.176,26.564,26.564,0,0,0,6.183-1.176c.375.775.724,1.532,1.026,2.254A12.759,12.759,0,0,1,28.788,37.784ZM33.314,4.567c1.281.775,2.671,1.974,2.671,3.529a3.924,3.924,0,0,1-.78,2.016,8.788,8.788,0,0,0-1.057-1.036,16.556,16.556,0,0,0-.834-4.509Zm2.671,12.525c0,3.718-3.914,4.5-7.2,4.5s-7.2-.78-7.2-4.5c0-3.362,2.233-8.1,7.2-8.1S35.985,13.731,35.985,17.093Zm-14.394-9c0-1.5,1.341-2.723,2.675-3.539a16.588,16.588,0,0,0-.838,4.519,8.788,8.788,0,0,0-1.057,1.036,3.924,3.924,0,0,1-.78-2.016Zm1.8,15.293h10.8a1.8,1.8,0,0,1,0,3.6H23.39a1.8,1.8,0,0,1,0-3.6Zm5.439,30.559c-1.017-.331-5.725-2.089-7.911-6.6a17.847,17.847,0,0,0,7.87,2.131,18.1,18.1,0,0,0,8.081-2.242,11.691,11.691,0,0,1-8.04,6.712Z" transform="translate(24.212 25.201)"/></g></svg>