<svg xmlns="http://www.w3.org/2000/svg" xmlns:xlink="http://www.w3.org/1999/xlink" width="54" height="54" viewBox="0 0 54 54"><defs><style>.a{fill:#d8d8d8;}.b{clip-path:url(#a);}.c{fill:#29272c;}</style><clipPath id="a"><rect class="a" width="54" height="54" transform="translate(26 27)"/></clipPath></defs><g class="b" transform="translate(-26 -27)"><g transform="translate(25.129 26.566)"><path class="c" d="M46.394,23.721a4.359,4.359,0,0,0-4.2-1.324l-6.247,1.431c.127-.181.253-.363.366-.553l4.733-4.368L51.453,22.27a2.623,2.623,0,0,0,3.067-1.179,2.65,2.65,0,0,0,.224-.5A2.612,2.612,0,0,0,53.059,17.3l-10.9-3.521a4.364,4.364,0,0,0-4.3.955L36.707,15.8c-.05-.106-.109-.208-.162-.313l3.391-6.782h5.353a2.613,2.613,0,1,0,0-5.226H39.4a4.334,4.334,0,0,0-3.9,2.407L33.06,10.775A6.306,6.306,0,0,0,28.04,5.243l-.171-.035-.171.035a6.3,6.3,0,0,0-5.019,5.532L20.238,5.891a4.334,4.334,0,0,0-3.9-2.407H10.451a2.613,2.613,0,1,0,0,5.226H15.8l3.391,6.781c-.054.1-.113.206-.162.313l-1.154-1.072a4.364,4.364,0,0,0-4.3-.954L2.683,17.3a2.613,2.613,0,0,0-1.461,3.794A2.625,2.625,0,0,0,4.288,22.27L14.7,18.906l4.733,4.368c.112.19.238.372.366.553L13.547,22.4a4.361,4.361,0,0,0-4.2,1.325l-7.675,8.5a2.612,2.612,0,0,0,.188,3.694,2.646,2.646,0,0,0,.444.322,2.591,2.591,0,0,0,1.3.346,2.622,2.622,0,0,0,1.946-.858L12.878,27.6l4.257.975a13.926,13.926,0,0,0-2.161,3.607l-5.185,1.6a4.359,4.359,0,0,0-2.977,3.248l-2.4,11.195a2.611,2.611,0,0,0,2.01,3.1,2.676,2.676,0,0,0,.545.057,2.626,2.626,0,0,0,2.554-2.066l2.291-10.694,2.148-.661a13.918,13.918,0,0,0,27.817,0l2.148.661L46.217,49.32a2.626,2.626,0,0,0,2.554,2.065,2.69,2.69,0,0,0,.55-.057,2.611,2.611,0,0,0,2.006-3.1l-2.4-11.2a4.359,4.359,0,0,0-2.977-3.247l-5.185-1.6A13.926,13.926,0,0,0,38.6,28.579l4.257-.975,7.331,8.116a2.624,2.624,0,0,0,3.242.512,2.7,2.7,0,0,0,.449-.326,2.613,2.613,0,0,0,.185-3.689Zm2.107,4.93-1.232,1.232L44.126,26.4l.495-1.923a2.6,2.6,0,0,1,.482.407Zm-5.92-4.557a2.6,2.6,0,0,1,.348-.032l-.476,1.847-5.253,1.2a13.89,13.89,0,0,0-1.795-1.375ZM20.031,19.16c0-3.842,3.516-6.967,7.838-6.967s7.838,3.126,7.838,6.967-3.516,6.967-7.838,6.967S20.031,23,20.031,19.16Zm33,.226a.865.865,0,0,1-.022.833.875.875,0,0,1-1.022.393L47.622,19.2,48,17.5l4.52,1.461a.857.857,0,0,1,.509.43Zm-6.693-2.43-.379,1.707L41.8,17.322v-1.83Zm-7.29-.948a2.586,2.586,0,0,1,1.016-.564v2l-2.654,2.449c.023-.24.041-.482.041-.728a7.864,7.864,0,0,0-.157-1.523ZM45.288,5.226a.871.871,0,0,1,0,1.742H39.8L38.473,5.4a2.607,2.607,0,0,1,.924-.173ZM37.061,6.67c.025-.051.057-.1.084-.144l1.217,1.436-2.933,5.867a9.186,9.186,0,0,0-1.318-1.262Zm-5.739,4.376a10.3,10.3,0,0,0-2.581-.555V7.306A4.548,4.548,0,0,1,31.322,11.046ZM27,7.306v3.185a10.3,10.3,0,0,0-2.581.555A4.548,4.548,0,0,1,27,7.306ZM9.58,6.1a.872.872,0,0,1,.871-.871h5.891a2.616,2.616,0,0,1,.926.173L15.939,6.967H10.451A.872.872,0,0,1,9.58,6.1Zm7.8,1.866,1.217-1.436c.028.048.059.093.084.143l2.949,5.9a9.23,9.23,0,0,0-1.318,1.262Zm-3.443,7.529v1.83L9.781,18.664,9.4,16.957ZM3.753,20.612a.875.875,0,0,1-1.022-.391.978.978,0,0,1-.075-.17.869.869,0,0,1,.562-1.1L7.738,17.5,8.117,19.2Zm11.924-3.173v-2a2.584,2.584,0,0,1,1.016.563l1.754,1.63a7.865,7.865,0,0,0-.157,1.523c0,.246.018.488.041.728Zm4.657,8.3a13.95,13.95,0,0,0-1.795,1.375l-5.253-1.2-.476-1.847a2.589,2.589,0,0,1,.347.031Zm-9.7-.848a2.61,2.61,0,0,1,.482-.407l.495,1.922L8.472,29.884,7.238,28.652ZM4.255,34.551a.876.876,0,0,1-1.083.171.846.846,0,0,1-.148-.107.869.869,0,0,1-.062-1.231l3.107-3.439L7.3,31.177ZM8.6,37.164,10.1,38.3,9,43.422l-1.673-.5,1.184-5.525C8.532,37.314,8.573,37.243,8.6,37.164ZM6.785,49.625a.858.858,0,0,1-.549-.379.869.869,0,0,1-.12-.656l.848-3.96,1.673.5-.82,3.823A.9.9,0,0,1,6.785,49.625ZM11.239,36.98l-1.6-1.214a2.587,2.587,0,0,1,.665-.32l4.021-1.238A13.918,13.918,0,0,0,14,36.128ZM27.87,49.643a12.187,12.187,0,0,1-5.233-23.2,10.331,10.331,0,0,0,10.465,0,12.187,12.187,0,0,1-5.233,23.2ZM47.142,37.164c.024.078.065.149.083.23l1.184,5.526-1.673.5-1.1-5.119ZM49.5,49.245a.851.851,0,0,1-.544.378.884.884,0,0,1-1.038-.669l-.82-3.823,1.673-.5.848,3.961a.869.869,0,0,1-.119.656Zm-4.065-13.8a2.587,2.587,0,0,1,.665.32L44.5,36.98l-2.766-.851a13.953,13.953,0,0,0-.317-1.92Zm7.28-.834a.855.855,0,0,1-.153.111.876.876,0,0,1-1.081-.171l-3.048-3.374,1.232-1.232,3.108,3.44a.87.87,0,0,1-.058,1.226Z"/><path class="c" d="M33.966,19.16a4.637,4.637,0,0,0-.974-2.8,2.576,2.576,0,0,0,.1-.685,2.6,2.6,0,0,0-4.572-1.71,7.272,7.272,0,0,0-1.306,0,2.592,2.592,0,0,0-4.47,2.394,4.637,4.637,0,0,0-.974,2.8c0,2.882,2.736,5.226,6.1,5.226S33.966,22.042,33.966,19.16Zm-3.484-4.355a.871.871,0,1,1-.871.871A.872.872,0,0,1,30.482,14.806Zm-5.226,0a.871.871,0,1,1-.871.871A.872.872,0,0,1,25.257,14.806ZM23.515,19.16a2.83,2.83,0,0,1,.329-1.292,2.606,2.606,0,0,0,4.025-2.191A2.606,2.606,0,0,0,31.9,17.869a2.83,2.83,0,0,1,.329,1.292c0,1.921-1.953,3.484-4.355,3.484S23.515,21.082,23.515,19.16Z"/><path d="M34.028,31.292a8.72,8.72,0,0,1,0,12.318l1.231,1.231a10.463,10.463,0,0,0,0-14.781Z"/><path d="M21.711,31.292,20.48,30.06a10.463,10.463,0,0,0,0,14.781l1.231-1.231A8.718,8.718,0,0,1,21.711,31.292Z"/><path d="M32.8,32.523l-1.231,1.231a5.232,5.232,0,0,1,0,7.39L32.8,42.376a6.975,6.975,0,0,0,0-9.853Z"/><path d="M22.943,32.523a6.975,6.975,0,0,0,0,9.853l1.231-1.231a5.232,5.232,0,0,1,0-7.39Z"/></g></g></svg>