<svg xmlns="http://www.w3.org/2000/svg" xmlns:xlink="http://www.w3.org/1999/xlink" width="54" height="54" viewBox="0 0 54 54"><defs><style>.a{fill:#29272c;}.b{clip-path:url(#a);}</style><clipPath id="a"><rect class="a" width="54" height="54"/></clipPath></defs><g class="b"><g transform="translate(5.85)"><path class="a" d="M11.7,49.5V34.786a8.056,8.056,0,0,1,3.806-6.869l2.125-1.328A2.685,2.685,0,0,0,18.9,24.3V21.6a4.5,4.5,0,0,1,2.7-4.118V16.2c0-1.342-1.546-2.7-4.5-2.7-2.212,0-4.5,0-4.5-1.8,0-1.9.584-8.1,8.1-8.1H36.9a.7.7,0,0,1,.1.02.793.793,0,0,1,.08,0l3.054.61A2.706,2.706,0,0,1,42.3,6.876v.648a2.706,2.706,0,0,1-2.17,2.646l-3.054.61a.839.839,0,0,1-.176.02H35.1a6.259,6.259,0,0,0-1.4.161,8.033,8.033,0,0,0,4.426,3.916.9.9,0,0,1,.569.837V18a.9.9,0,0,1-.9.9h-.084a13.581,13.581,0,0,1-8.376-4.338A6.253,6.253,0,0,0,28.8,17.1v.382A4.5,4.5,0,0,1,31.5,21.6v2.7a2.685,2.685,0,0,0,1.269,2.29l2.125,1.328A8.056,8.056,0,0,1,38.7,34.786V49.5A4.505,4.505,0,0,1,34.2,54h-18A4.505,4.505,0,0,1,11.7,49.5ZM40.5,7.524V6.876a.9.9,0,0,0-.72-.883L37.8,5.6V8.8l1.98-.4A.9.9,0,0,0,40.5,7.524ZM36.9,16.93v-.621a9.63,9.63,0,0,1-4.882-4.7,6.351,6.351,0,0,0-1.643,1.336A11.284,11.284,0,0,0,36.9,16.93Zm-8.406-4.5c.009-.014.02-.027.031-.041a8.126,8.126,0,0,1,3.626-2.823c.011,0,.018-.014.03-.018a.087.087,0,0,1,.031,0A8.047,8.047,0,0,1,35.1,9H36V5.4H20.7c-5.342,0-6.255,3.748-6.3,6.12a11.631,11.631,0,0,0,2.7.18c4.329,0,6.3,2.333,6.3,4.5v.9H27a8.045,8.045,0,0,1,1.494-4.671ZM29.7,21.6A2.7,2.7,0,0,0,27,18.9H23.4a2.7,2.7,0,0,0-2.7,2.7v.9h9ZM13.5,49.5a2.7,2.7,0,0,0,2.7,2.7h18a2.7,2.7,0,0,0,2.7-2.7V34.786a6.263,6.263,0,0,0-2.961-5.342l-2.124-1.327A4.474,4.474,0,0,1,29.7,24.3h-9a4.474,4.474,0,0,1-2.115,3.816l-2.124,1.327A6.263,6.263,0,0,0,13.5,34.786Z" transform="translate(-11.7)"/><path class="a" d="M19.593,36.927a.9.9,0,0,1,1.091.654l.769,3.076,2.036.509a7.672,7.672,0,0,1,.63-2.285l-1.346-1.345a.9.9,0,0,1-.262-.636V33.3a.9.9,0,1,1,1.8,0v3.227l.868.868c.012-.011.02-.024.032-.034V36.9a3.6,3.6,0,1,1,7.2,0v.462c.012.01.02.023.032.034l.868-.868V33.3a.9.9,0,1,1,1.8,0v3.6a.9.9,0,0,1-.264.636L33.5,38.88a7.673,7.673,0,0,1,.63,2.285l2.036-.509.769-3.076a.9.9,0,0,1,1.746.437l-.9,3.6a.9.9,0,0,1-.655.654l-2.956.739a5.612,5.612,0,0,1-.367,1.5l1.589.529a.9.9,0,0,1,.569.57l.9,2.7a.9.9,0,0,1-1.71.569l-.759-2.273-1.59-.531a5.745,5.745,0,0,1-8,0l-1.59.531-.759,2.273a.9.9,0,0,1-1.71-.569l.9-2.7a.9.9,0,0,1,.569-.57l1.589-.529a5.612,5.612,0,0,1-.367-1.5l-2.956-.739a.9.9,0,0,1-.655-.654l-.9-3.6a.9.9,0,0,1,.664-1.09ZM28.811,45.9a3.388,3.388,0,0,0,3.6-3.6c0-1.294-.367-3.055-1.4-3.754a.9.9,0,0,1-.4-.746v-.9a1.8,1.8,0,1,0-3.6,0v.9a.9.9,0,0,1-.4.746c-1.037.7-1.4,2.46-1.4,3.754a3.388,3.388,0,0,0,3.6,3.6Z" transform="translate(-15.311)"/><circle class="a" cx="0.9" cy="0.9" r="0.9" transform="translate(33.3 6.3)"/><circle class="a" cx="0.9" cy="0.9" r="0.9" transform="translate(32.4 9)"/><circle class="a" cx="0.9" cy="0.9" r="0.9" transform="translate(35.1 10.8)"/><circle class="a" cx="0.9" cy="0.9" r="0.9" transform="translate(37.8 12.6)"/><circle class="a" cx="0.9" cy="0.9" r="0.9" transform="translate(32.4 3.6)"/><circle class="a" cx="0.9" cy="0.9" r="0.9" transform="translate(35.1 1.8)"/><circle class="a" cx="0.9" cy="0.9" r="0.9" transform="translate(37.8)"/><circle class="a" cx="0.9" cy="0.9" r="0.9" transform="translate(36.9 6.3)"/><circle class="a" cx="0.9" cy="0.9" r="0.9" transform="translate(40.5 6.3)"/></g></g></svg>