<svg xmlns="http://www.w3.org/2000/svg" xmlns:xlink="http://www.w3.org/1999/xlink" width="54" height="54" viewBox="0 0 54 54"><defs><style>.a{fill:#29272c;}.b{clip-path:url(#a);}</style><clipPath id="a"><rect class="a" width="54" height="54"/></clipPath></defs><g class="b"><g transform="translate(0 2.513)"><path class="a" d="M7.981,36.4l5.905-3.548-5.6-1.678a1.333,1.333,0,0,1,.06-2.57c1.509-.376,3.03-.776,4.521-1.188a.79.79,0,1,1,.421,1.524c-1.216.336-2.453.664-3.686.978,0,0,26.572,8,26.753,8.067a.79.79,0,0,1-.271,1.533,1.025,1.025,0,0,1-.4-.1v.443a4.651,4.651,0,0,0,2.215,3.978.555.555,0,0,0,.812-.277l1.238-3.293H39.9a.79.79,0,1,1,.059-1.579A11.773,11.773,0,0,0,52.158,26.9c0-.019,0-.039,0-.058l.262-3.606A.79.79,0,1,1,54,23.354l-.26,3.577a13.357,13.357,0,0,1-12.085,13.29l-1.466,3.9a2.127,2.127,0,0,1-.894,1.076v2.258h6.314a.79.79,0,0,1,0,1.581h-4.53l1.482,1.005a.79.79,0,1,1-.887,1.308l-3.412-2.313H32.954a.79.79,0,1,1,0-1.581h4.759v-2a2.139,2.139,0,0,1-.65-.267A6.222,6.222,0,0,1,34.1,39.864v-.959l-8.763-2.624L8.874,38.859A1.333,1.333,0,0,1,7.981,36.4Zm13.836-1.173-5.883-1.762L9.883,37.1Z" transform="translate(-7.332 -2.514)"/><path class="a" d="M37.6,20.65a.79.79,0,0,1-.731-.845l.461-6.355a.824.824,0,0,1,.011-.087,4.323,4.323,0,0,1,1.438-2.775,3.485,3.485,0,0,1,1.811-.66,3.056,3.056,0,0,0,1-.269A4.237,4.237,0,0,0,41.976,6.4a3.314,3.314,0,0,0-2.412-2.123,6.935,6.935,0,0,0-3.907.243,5.092,5.092,0,0,0-1.084.586,9.918,9.918,0,0,0-2.753,2.8l-4.245,6.442a4.069,4.069,0,0,1-2.025,1.587l-4.676,1.659a12.288,12.288,0,0,0-4.762,3.11,15.328,15.328,0,0,1-1.357,1.261A2.764,2.764,0,0,0,17.184,23.4a1.074,1.074,0,0,1,1.4,1.075,2.738,2.738,0,0,0-.015.281,2.778,2.778,0,0,0,2.775,2.775c.469-.013.981-.188,1.377.162a1.079,1.079,0,0,1,.412.79,2.776,2.776,0,0,0,3.555,2.5,1,1,0,0,1,1.27.837,2.766,2.766,0,0,0,1.75,2.252,1,1,0,0,1,.05,1.844,4.357,4.357,0,0,1-5.19-1.236q-.186.029-.374.041a4.339,4.339,0,0,1-4.106-2.239,4.357,4.357,0,0,1-5.035-2.324,4.359,4.359,0,0,1-5.378-3.235q-.217.037-.438.052A4.315,4.315,0,0,1,6.4,26.161q-2.387.858-5.381,1.76a.79.79,0,1,1-.456-1.513,56.8,56.8,0,0,0,11.516-4.478,13.721,13.721,0,0,0,2.889-2.314,13.876,13.876,0,0,1,5.379-3.511l4.676-1.659a2.479,2.479,0,0,0,1.234-.967L30.5,7.038a11.491,11.491,0,0,1,3.192-3.247,6.438,6.438,0,0,1,1.451-.768,8.426,8.426,0,0,1,4.826-.276,4.8,4.8,0,0,1,3.747,4.365,4.773,4.773,0,0,1,1.8,3.131,1,1,0,0,1-1.563.994,3.675,3.675,0,0,0-1.167-.549,3.15,3.15,0,0,1-1.931.8,2.941,2.941,0,0,0-1.021.279,2.71,2.71,0,0,0-.929,1.843l-.458,6.31A.791.791,0,0,1,37.6,20.65ZM9.133,25.4a2.776,2.776,0,0,0,.7-.14,1,1,0,0,1,1.32.877v.01a2.777,2.777,0,0,0,3.85,2.362.993.993,0,0,1,1.334.612,2.774,2.774,0,0,0,3.685,1.722h0a.993.993,0,0,1,1.3.555,2.779,2.779,0,0,0,3.254,1.672,1,1,0,0,1,1.074.416,2.786,2.786,0,0,0,2.142,1.234,4.338,4.338,0,0,1-1.281-2.084A4.358,4.358,0,0,1,21.619,29.1q-.137.009-.274.009A4.36,4.36,0,0,1,17,24.978a4.34,4.34,0,0,1-3.519-2.062l-.01,0c-.19.126-.381.248-.576.365A31.3,31.3,0,0,1,8.5,25.369a2.805,2.805,0,0,0,.637.029Z" transform="translate(8.469 -2.514)"/><ellipse class="a" cx="0.936" cy="0.936" rx="0.936" ry="0.936" transform="translate(48.051 6.494) rotate(-157.486)"/></g></g></svg>