<svg xmlns="http://www.w3.org/2000/svg" xmlns:xlink="http://www.w3.org/1999/xlink" width="54" height="54" viewBox="0 0 54 54"><defs><style>.a{fill:#29272c;}.b{clip-path:url(#a);}</style><clipPath id="a"><rect class="a" width="54" height="54" transform="translate(26 27)"/></clipPath></defs><g class="b" transform="translate(-26 -27)"><g transform="translate(26 27)"><path class="a" d="M53.59,25.2l-9.963-8.508c.012-.058.023-.116.035-.186V5.38a1.241,1.241,0,0,0-1.2-1.222H36.9A1.211,1.211,0,0,0,35.735,5.38V9.989l-7.973-6.8a1.164,1.164,0,0,0-1.513,0L.421,25.19a1.165,1.165,0,0,0,1.49,1.792l.023-.023L27.005,5.612l8.974,7.647,5.366,4.563,10.743,9.149a1.163,1.163,0,0,0,1.641-.128A1.175,1.175,0,0,0,53.59,25.2ZM41.322,14.726l-3.259-2.747V6.5h3.259Z"/><path class="a" d="M48.457,27.553l-3.271-2.793L27.762,9.872a1.164,1.164,0,0,0-1.513,0L8.824,24.759,5.554,27.553a1.163,1.163,0,0,0-.128,1.641,1.132,1.132,0,0,0,1.606.14l.012-.012L8.5,28.065V49.889a1.228,1.228,0,0,0,1.2,1.2H44.3a1.22,1.22,0,0,0,1.2-1.2V28.065l1.455,1.257a1.158,1.158,0,0,0,.745.279,1.177,1.177,0,0,0,.885-.407A1.151,1.151,0,0,0,48.457,27.553Zm-16.8,21.2H22.35V36.178h9.312Zm2.328,0v-13.7a1.159,1.159,0,0,0-1.117-1.2H21.139a1.159,1.159,0,0,0-1.117,1.2v13.7h-9.2V26.075L27.005,12.293,43.184,26.075V48.748Z"/></g></g></svg>