<svg xmlns="http://www.w3.org/2000/svg" xmlns:xlink="http://www.w3.org/1999/xlink" width="54" height="54" viewBox="0 0 54 54"><defs><style>.a{fill:#29272c;}.b{clip-path:url(#a);}</style><clipPath id="a"><rect class="a" width="54" height="54" transform="translate(26 27)"/></clipPath></defs><g class="b" transform="translate(-26 -27)"><g transform="translate(22.167 23.823)"><path class="a" d="M55.087,14.97l-5.909-3.76a10.4,10.4,0,0,0-6.919-1.545A6.7,6.7,0,0,0,32.617,18.2H27.542a15.925,15.925,0,0,0-13.276,7.105l-.121.181A16.511,16.511,0,0,0,13.1,41.993l.2.392-2.359,3.146L5.765,46.765A2.517,2.517,0,0,0,6.35,51.73H9.819a10.408,10.408,0,0,0,6.865-2.562l.024.047a4.525,4.525,0,0,0,4.069,2.515H36.758a.958.958,0,0,0,.958-.958V49.406a3.407,3.407,0,0,0-.814-2.212l1.211-1.211h2.745l1.7,5.093a.958.958,0,0,0,.909.655h5.748a.958.958,0,0,0,.958-.958V49.107a2.631,2.631,0,0,0-1.8-2.5l-1.2-.4-.8-4.017,1.006-3.522a15.959,15.959,0,0,0,.493-6.4l-.154-1.232a3.342,3.342,0,0,1,2.15-3.555l2.6-.975A10.145,10.145,0,0,0,56.1,24.167a5.931,5.931,0,0,0-1.01-9.2ZM9.819,49.814H6.35a.6.6,0,0,1-.14-1.185l5.5-1.314a.958.958,0,0,0,.544-.357L14.25,44.3l1.543,3.086a8.514,8.514,0,0,1-5.974,2.427Zm44.922-27a8.241,8.241,0,0,1-2.953,1.9l-2.6.975a5.252,5.252,0,0,0-3.378,5.587l.154,1.232a14.049,14.049,0,0,1-.435,5.634l-1.07,3.745a.958.958,0,0,0-.018.451l.958,4.79a.958.958,0,0,0,.636.721l1.728.576a.718.718,0,0,1,.491.682v.708h-4.1l-1.7-5.093a.958.958,0,0,0-.909-.655H37.716a.958.958,0,0,0-.677.281l-1.776,1.776a3.409,3.409,0,0,0-.97-.141H32.185l2.315-2.6a7.234,7.234,0,0,0-10.521-9.921l-1.31,1.31a.958.958,0,1,0,1.355,1.355l1.31-1.31A5.318,5.318,0,0,1,33.069,42.1l-3.732,4.2a.958.958,0,0,0,.716,1.595h4.24A1.509,1.509,0,0,1,35.8,49.406v.409H20.777a2.619,2.619,0,0,1-2.356-1.455L14.81,41.136a14.59,14.59,0,0,1,.929-14.585l.12-.181a14.013,14.013,0,0,1,11.683-6.253h6.343q.049,0,.1,0a6.682,6.682,0,0,0,4.691,1.921.958.958,0,0,0,0-1.916,4.79,4.79,0,1,1,4.15-7.184.958.958,0,1,0,1.658-.959c-.091-.157-.188-.309-.29-.456a8.491,8.491,0,0,1,3.958,1.308l5.909,3.76a4.015,4.015,0,0,1,.684,6.227Z"/><circle class="a" cx="1.437" cy="1.437" r="1.437" transform="translate(45.859 15.806)"/><path class="a" d="M38.674,11.5a3.832,3.832,0,1,0,1.277,7.445.958.958,0,0,0-.638-1.806,1.916,1.916,0,1,1,1.168-2.446.958.958,0,1,0,1.806-.638A3.838,3.838,0,0,0,38.674,11.5Z"/></g></g></svg>