<svg xmlns="http://www.w3.org/2000/svg" width="47.039" height="47.039" viewBox="0 0 47.039 47.039"><defs><style>.a{fill:#fff;}</style></defs><g transform="translate(0 6.829)"><path class="a" d="M42.564,189.159a3.861,3.861,0,0,0,1.172-2.772v-4.265a8.639,8.639,0,0,0-8.7-8.639,8.711,8.711,0,0,0-8.574,8.736v4.168a3.862,3.862,0,0,0,1.171,2.771,7.785,7.785,0,0,0-.821.448,3.945,3.945,0,0,0-5.955-.72,8.063,8.063,0,0,0-3.977-1.041H15.527v-.733a5.14,5.14,0,0,0,2.113-4.153v-3.116a5.159,5.159,0,1,0-6.964-7.454,4.279,4.279,0,0,0-3.326,7.844v2.726a5.14,5.14,0,0,0,2.113,4.153v.733H8.115A8.125,8.125,0,0,0,0,195.961v4.931a.919.919,0,0,0,.919.919H5.88a.919.919,0,0,0,0-1.837H1.837v-4.012a6.285,6.285,0,0,1,6.278-6.278H9.463v.084a3.032,3.032,0,1,0,6.064,0v-.084h1.348a6.24,6.24,0,0,1,2.944.732,3.941,3.941,0,0,0,.516,3.714,4.475,4.475,0,0,0-3.085,4.247v1.6h-3.1a.919.919,0,0,0,0,1.837H46.121a.919.919,0,0,0,.919-.919v-4.7A7.782,7.782,0,0,0,42.564,189.159ZM9.386,174.028a2.443,2.443,0,0,1,1.183.305.919.919,0,0,0,1.249-.356,3.323,3.323,0,1,1,.673,4.074.919.919,0,0,0-1.3.062,2.442,2.442,0,1,1-1.807-4.085Zm-.2,6.717c.066,0,.132.005.2.005a4.29,4.29,0,0,0,2.531-.829,5.159,5.159,0,0,0,3.885.714v2.324a3.307,3.307,0,0,1-6.615,0Zm4.5,9.023a1.194,1.194,0,1,1-2.389,0v-1.8a5.112,5.112,0,0,0,2.389,0Zm16.641-1.344a2.038,2.038,0,0,1-2.036-2.036v-4.168a6.869,6.869,0,0,1,6.75-6.9,6.8,6.8,0,0,1,6.854,6.8v4.265a2.038,2.038,0,0,1-2.036,2.036H38.036v-.634a4.957,4.957,0,0,0,2.021-3.993v-1.81a2.1,2.1,0,0,0-2.1-2.1h-5.72a2.1,2.1,0,0,0-2.1,2.1v1.81a4.957,4.957,0,0,0,2.021,3.993v.634Zm4.766-1.5a3.127,3.127,0,0,1-3.124-3.124v-1.81a.264.264,0,0,1,.264-.264h5.72a.264.264,0,0,1,.264.264v1.81A3.127,3.127,0,0,1,35.1,186.919Zm-1.1,1.712a4.924,4.924,0,0,0,2.2,0v1.358a1.1,1.1,0,0,1-2.2,0ZM23.52,189.683a2.113,2.113,0,1,1-2.113,2.113A2.115,2.115,0,0,1,23.52,189.683Zm-4.433,8.694a2.633,2.633,0,0,1,2.63-2.63h3.606a2.633,2.633,0,0,1,2.63,2.63v1.6H19.087Zm26.115,1.6H29.79v-1.6a4.475,4.475,0,0,0-3.085-4.247,3.929,3.929,0,0,0,.765-2.333,3.972,3.972,0,0,0-.021-.411,5.935,5.935,0,0,1,3.476-1.125h1.244a2.939,2.939,0,0,0,5.854,0h1.244A5.942,5.942,0,0,1,45.2,196.2Z" transform="translate(0 -161.6)"/><path class="a" d="M396.94,80.213a2.94,2.94,0,1,0-2.94-2.94A2.943,2.943,0,0,0,396.94,80.213Zm0-4.042a1.1,1.1,0,1,1-1.1,1.1A1.1,1.1,0,0,1,396.94,76.17Z" transform="translate(-357.802 -74.333)"/><path class="a" d="M99.919,492a.919.919,0,1,0,.649.269A.925.925,0,0,0,99.919,492Z" transform="translate(-89.904 -453.627)"/></g><g transform="translate(20.58)"><path class="a" d="M226.94,5.88a2.94,2.94,0,1,1,2.94-2.94A2.943,2.943,0,0,1,226.94,5.88Zm0-4.042a1.1,1.1,0,1,0,1.1,1.1A1.1,1.1,0,0,0,226.94,1.837Z" transform="translate(-224)"/></g><g transform="translate(4.961 5.696)"><path class="a" d="M56.94,67.88a2.94,2.94,0,1,1,2.94-2.94A2.943,2.943,0,0,1,56.94,67.88Zm0-4.042a1.1,1.1,0,1,0,1.1,1.1A1.1,1.1,0,0,0,56.94,63.837Z" transform="translate(-54 -62)"/></g></svg>